<?xml version="1.0" encoding="UTF-8" standalone="no"?>
<!DOCTYPE svg PUBLIC "-//W3C//DTD SVG 1.1//EN" "http://www.w3.org/Graphics/SVG/1.1/DTD/svg11.dtd">
<svg width="100%" height="100%" viewBox="0 0 400 400" version="1.1" xmlns="http://www.w3.org/2000/svg" xmlns:xlink="http://www.w3.org/1999/xlink" xml:space="preserve" xmlns:serif="http://www.serif.com/" style="fill-rule:evenodd;clip-rule:evenodd;stroke-linecap:round;stroke-linejoin:round;stroke-miterlimit:1.4;">
    <rect id="ブログ" x="0" y="0" width="400" height="400" style="fill:none;"/>
    <g id="ブログ1" serif:id="ブログ">
        <g transform="matrix(2.13774,0,0,2.34318,-396.002,-572.57)">
            <g transform="matrix(1,0,0,1,1e-05,-212.84)">
                <path d="M190.4,595.8L190.2,595.7L190.2,595.4L190.1,595.4L190.2,595.4L190.2,595.3L190.1,595.3L190.1,593.9L190,593.8L190,593.5L190.1,593.4L190.1,593.2L190,593.1L190,592.9L189.9,592.8L190.1,592.8L190.1,592.7L190,592.7L189.9,592.6L189.9,591.7L189.8,591.5L189.8,591L189.7,591L189.7,589.4L189.6,589.2L189.7,589.1L189.7,588.5L189.6,588.5L189.6,587.8L189.5,587.7L189.5,587.5L189.6,587.5L189.6,585.8L189.7,585.6L189.7,584.5L189.8,584.5L189.8,584.4L189.7,584.3L189.7,583.2L189.8,583.1L189.8,582.9L189.9,582.8L189.9,582.6L189.8,582.4L189.8,581.9L189.9,581.8L189.9,580.9L190,580.9L190,580.7L189.9,580.7L189.9,579.9L190,579.7L190,579.4L189.9,579L189.9,578.5L190,578.3L190,577.3L190.1,576.9L190.1,575.9L190.2,575.8L190.2,575.7L190.3,575.5L190.3,571.5L190.4,571.4L190.4,570.1L190.5,569.9L190.5,565.8L190.6,565.1L190.6,564.9L190.5,564.7L190.5,564.2L190.6,563.7L190.6,562.7L190.8,561.7L190.8,559.7L190.9,559.3L190.8,558.9L190.9,558.5L190.9,558L191,557.5L191,557L191.1,556.8L191.1,554.9L191.2,554.6L191.2,553.9L191.3,553.6L191.3,553.2L191.4,552.9L191.4,551.9L191.5,551.8L191.5,548.3L191.4,548.2L191.4,547.7L191.5,547.3L191.6,547L191.6,543L191.7,542.7L191.7,542.2L191.6,542L191.6,540.3L191.7,540.1L191.7,537.7L191.8,537.3L191.8,535.5L191.7,535L191.7,533.6L191.6,533.1L191.6,532.5L191.5,531.8L191.5,531.1L191.4,530.4L191.4,528.3L191.3,527.6L191.3,526.1L191.2,525.9L191.3,525.5L191.3,525L191.2,524.6L191.2,523.7L191.3,523.1L191.3,521.3L191.2,521.1L191.2,514.4L191.1,514.1L191.1,513L191,512.7L191,508.2L191.2,507.8L191.2,507.2L191.1,507.1L191.1,505.5L191.2,505.2L191.2,504.2L191.3,503.8L191.4,503.5L191.4,501.5L191.3,501.3L191.3,498.6L191.2,498.2L191.3,497.7L191.3,496.1L191.2,495.6L191.2,493.2L191.1,493.1L191,492.9L191,492.6L190.9,492.5L190.9,492.1L190.8,492.1L190.9,492.1L190.9,492L191,492L190.9,492L190.9,492.2L191,492.2L191.9,491.1L191.7,491.1L191.7,491L191.8,491L191.8,490.9L191.7,490.9L191.8,490.9L191.8,490.8L191.7,490.8L191.8,490.8L191.9,490.7L191.9,490.6L192,490.6L192,490.5L192.2,490.5L192.2,490.4L192.3,490.4L192.5,490.3L192.6,490.3L192.7,490.2L193,490.2L193.6,490L194,489.9L194.3,489.8L194.7,489.7L195,489.7L195.4,489.6L195.6,489.5L195.7,489.5L196.1,489.4L196.3,489.3L197.3,489.3L197.4,489.2L199,489.2L199.4,489.3L201.6,489.3L202.2,489.2L205.5,489.2L206,489.3L211.1,489.3L211.6,489.4L212.9,489.4L213.3,489.5L216.4,489.5L216.9,489.4L220.2,489.4L220.5,489.5L224.8,489.5L225.3,489.4L226.4,489.4L227,489.3L228.4,489.3L228.8,489.2L229.7,489.2L230.2,489.1L231.1,489.1L231.6,489L240.4,489L241,489.1L241.6,489.1L242.3,489.2L253.2,489.2L253.5,489.3L255.8,489.3L256,489.4L256.4,489.4L256.8,489.3L256.9,489.3L257.1,489.4L261.3,489.4L261.8,489.5L276.2,489.5L276.8,489.6L280.4,489.6L281,489.5L284.7,489.5L285.1,489.6L288.8,489.6L288.9,489.5L295.2,489.5L295.7,489.6L296.8,489.6L297.3,489.7L298,489.6L302.3,489.6L303,489.5L306.1,489.5L306.7,489.4L307.8,489.4L308.3,489.3L309.9,489.3L310.1,489.2L312.8,489.2L313.1,489.1L314.5,489.1L314.9,489L321.2,489L321.7,488.9L322.1,488.9L322.6,489L325.9,489L326.6,488.9L329.2,488.9L329.9,488.8L341.7,488.8L342.2,488.9L343.9,488.9L344.4,489L346.3,489L346.9,489.1L347.4,489.1L347.9,489.2L348.3,489.2L348.8,489.3L349.8,489.3L350.3,489.4L353,489.4L353.3,489.3L358.5,489.3L358.9,489.4L359.9,489.4L360.4,489.5L360.9,489.5L361.5,489.6L362.1,489.6L362.8,489.7L364.1,489.7L364.4,489.8L366.3,489.8L366.2,489.8L366.3,489.8L366.2,489.8L366.3,489.8L366.2,489.8L366.3,489.8L366.2,489.8L366.3,489.8L366.2,489.8L366.4,489.8L366.2,489.8L366.3,489.8L366,489.8L367,489.4L367,489.3L367.1,489.3L367,489.3L367,489.4L367.1,489.4L367,489.4L367.1,489.4L367.1,489.5L367.2,489.5L367.2,489.6L367.3,489.6L367.3,489.7L367.4,489.7L367.4,490.1L367.6,490.5L367.6,490.8L367.7,491.2L367.7,491.5L367.8,491.8L367.8,492.2L368,493L368.1,493.2L368.1,494L368.2,494.3L368.2,494.7L368.3,495.2L368.3,497.9L368.4,498.4L368.3,498.7L368.3,500.6L368.4,501.1L368.3,501.5L368.3,501.8L368.4,502.1L368.4,503.1L368.3,503.3L368.3,505L368.2,505.6L368.2,506.7L368.1,506.9L368.1,508.8L368,509.2L368,509.6L368.1,509.8L368.1,511.4L368,511.6L368,511.9L368.1,512.1L368.1,515.5L368,515.7L368,516.6L368.1,517L368.1,518.1L368,518.4L368,519L368.1,519.1L368.1,519.5L367.9,520.3L367.9,521.1L367.8,521.2L367.8,521.4L367.7,521.8L367.7,524.2L367.6,524.5L367.7,524.7L367.7,525.4L367.6,525.8L367.6,526.4L367.5,526.6L367.5,529L367.4,529.5L367.4,531.1L367.3,531.2L367.3,531.8L367.4,532L367.4,532.9L367.5,533L367.5,533.2L367.4,533.6L367.4,534.8L367.3,535.3L367.3,535.7L367.4,535.8L367.4,536.4L367.3,536.6L367.3,536.8L367.2,537.2L367.2,538.3L367.1,538.5L367.1,539.9L367.2,540.1L367.2,540.6L367.1,540.7L367,540.9L367,541L367.1,541.2L367.1,541.9L367,542.2L367,543.7L367.1,543.9L367.1,544.3L367,544.4L367,546L366.9,546.1L366.9,546.4L366.8,546.5L366.8,547.5L366.7,547.6L366.7,547.7L366.8,547.7L366.8,548.5L366.6,548.7L366.6,548.9L366.8,549L366.8,549.1L366.7,549.2L366.7,549.6L366.6,549.7L366.6,551.9L366.5,552.1L366.5,552.7L366.6,552.9L366.6,553.8L366.7,554L366.7,554.5L366.6,554.7L366.6,555.3L366.7,555.5L366.7,556.6L366.8,557.1L366.8,558.8L366.7,559.3L366.6,560L366.6,560.9L366.5,561.3L366.5,562.1L366.6,562.3L366.6,562.4L366.5,562.6L366.5,562.8L366.4,562.9L366.4,564.2L366.3,564.3L366.3,564.7L366.2,564.8L366.2,569.4L366.3,569.5L366.3,569.8L366.4,569.9L366.4,574L366.3,574.2L366.3,574.8L366.4,575.1L366.4,575.5L366.3,575.9L366.3,577.2L366.2,577.6L366.2,579.1L366.1,579.2L366.1,579.5L366.2,579.6L366.2,580L366.1,580L366.1,580.5L366.2,580.5L366.2,582L366.3,582.1L366.3,582.3L366.2,582.3L366.2,582.6L366.3,582.7L366.3,583.4L366.2,583.4L366.2,583.6L366.3,583.6L366.3,583.8L366.2,583.9L366.2,584.2L366.3,584.3L366.3,584.5L366.2,584.6L366.2,585.1L366.3,585.2L366.3,585.5L366.2,585.7L366.2,586.9L366.1,587L366.1,587.2L366.2,587.3L366.2,589.3L366.3,589.3L366.3,589.4L366.2,589.4L366.2,590.3L366.2,590.2L366.1,590.3L366.7,591.8L366.8,592.1L366.8,592.7L366.8,592.6L366.8,592.7L366.7,592.7L366.7,592.9L366.4,593.2L366.4,593.3L366.3,593.3L366.3,593.4L366.2,593.4L366.2,593.5L366,593.5L366,593.6L366.1,593.6L366.1,593.7L365.9,593.7L365.9,593.8L365.8,593.8L365.9,593.9L365.8,593.9L365.7,594L365.7,594.1L365.5,594.1L365.3,594.2L365,594.3L364.8,594.4L364.7,594.5L364.5,594.5L364.4,594.6L364.2,594.6L364.2,594.7L364.1,594.7L364,594.8L363.9,594.8L363.8,594.9L363.6,594.9L363.6,595L363.4,595L363.4,595.1L363.1,595.1L363,595.2L362.8,595.2L362.6,595.3L362.4,595.3L362.1,595.4L361.8,595.4L361.5,595.5L361.3,595.5L361.2,595.6L360.9,595.6L360.8,595.7L360.6,595.7L360.5,595.8L360.2,595.8L360.1,595.9L359.9,595.9L359.8,596L359.5,596L359.2,596.1L358.7,596.1L358.6,596.2L357.9,596.2L357.8,596.3L356,596.3L355.6,596.2L355,596.2L354.6,596.1L354.2,596.1L353.7,596L352.7,596L352.2,595.9L350.4,595.9L349.7,595.8L349.1,595.7L348.1,595.7L347.6,595.6L345.9,595.6L345.6,595.5L345.2,595.5L345.1,595.6L340.8,595.6L340.5,595.7L338.2,595.7L337.6,595.6L336.6,595.6L336.1,595.5L335.5,595.4L334.8,595.4L334,595.3L333.2,595.3L332.3,595.2L329.9,594.9L329.2,594.8L326.8,594.4L326.3,594.3L325.2,594.3L324.7,594.2L323.4,594.2L322.9,594.1L321.5,594.1L321.3,594L317.5,594L317,594.1L309.2,594.1L308.5,594.2L304,594.2L303.2,594.3L300,594.3L299,594.4L298,594.4L296.8,594.3L295.7,594.4L292.6,594.4L291.6,594.5L288.8,594.5L288,594.6L287.1,594.6L286.3,594.7L284.6,594.7L283.8,594.8L281.5,594.8L280.8,594.7L280.3,594.7L279.7,594.6L279.1,594.6L278.5,594.5L275.3,594.5L274.9,594.4L274.4,594.3L274,594.3L273,594.1L272.5,594.1L271.5,593.9L271.1,593.9L270.6,593.8L269.7,593.8L269.3,593.7L267.3,593.7L266.8,593.6L266.4,593.6L265.8,593.5L265.2,593.5L264.7,593.4L264.1,593.4L263.1,593.2L262.6,593.2L262,593.1L261.3,593L257,593L256.3,593.1L254,593.1L253.5,593L250.9,593L250.5,593.1L249.1,593.1L248.7,593.2L248.2,593.1L244.8,593.1L244.1,593.2L241.8,593.2L241,593.3L239.7,593.3L239.1,593.2L237.6,593.2L237,593.1L235.3,593.1L234.8,593L231.7,593L231.3,592.9L230.9,592.9L230.7,592.8L230.2,592.8L229.8,592.7L229.3,592.7L228.8,592.6L222.5,592.6L222.4,592.5L222.1,592.6L221.3,592.6L221,592.5L220.6,592.6L216.8,592.6L216.3,592.5L213.6,592.5L213,592.6L211.6,592.6L210,592.8L209.4,592.8L208.7,592.9L203.5,592.9L203,593L199,593L198.7,593.1L197.4,593.1L197,593.2L195.7,593.2L195.2,593.3L194.2,593.3L193.7,593.4L192.1,593.4L192,593.3L191.6,593.3L191.5,593.4L190.6,593.4L190.5,593.5L189.8,593.5L189.7,593.6L189.3,593.6L189.3,593.7L189.2,593.7L189.6,593.7L190.4,595.8Z" style="fill:white;fill-rule:nonzero;stroke:black;stroke-width:2.23px;"/>
            </g>
            <g transform="matrix(0.987679,0,0,0.752485,4.51327,70.3579)">
                <g transform="matrix(1,0,0,1,-5.68434e-14,-204.34)">
                    <path d="M199.1,481.4L199,481.3L199.1,481.2L199.1,481.1L199.1,481.2L199,481.2L198.9,481.3L198.8,481.3L198.8,481.4L198.6,481.6L198.4,481.9L197.6,482.9L197.1,483.4L196.7,483.9L196.4,484.3L196.1,484.8L195.7,485.3L195.4,485.8L194.7,486.5L194.4,486.9L194,487.5L193.5,488L193.4,488.2L193.2,488.4L193,488.8L192.9,488.8L192.9,488.9L192.8,489L192.8,489.1L192.7,489.2L192.6,489.2L192.6,489.3L192.4,489.5L192.4,489.6L192.3,489.6L192.3,489.7L192.1,489.9L192.1,490L192,490L192,490.1L191.9,490.1L191.9,490.3L192.1,490.3" style="fill:none;fill-rule:nonzero;stroke:rgb(91,119,133);stroke-width:6.43px;"/>
                </g>
                <g transform="matrix(1,0,0,1,-5.68434e-14,-200.24)">
                    <path d="M206.6,477.7L206.4,477.9L206.2,477.9L206.1,478L206,478L206,478.1L205.8,478.1L205.8,478.2L205.2,478.6L204.8,478.9L204.5,479.2L203.7,479.8L203.3,480.3L202.7,480.9L202,481.5L201.4,482.1L201.2,482.4L201,482.8L200.5,483.4L199.9,484.1L199.3,484.7L198.8,485.3L198.2,485.8L197.7,486.4L196.7,487.4L196.2,487.8L195.9,488L195.8,488.2L195.1,488.8L194.4,489.5L194.4,489.6L194.3,489.6L194.4,489.6L194.5,489.5L194.9,489.3" style="fill:none;fill-rule:nonzero;stroke:rgb(91,119,133);stroke-width:6.43px;"/>
                </g>
                <g transform="matrix(1,0,0,1,-5.68434e-14,-198.94)">
                    <path d="M216.6,475.7L216.6,475.6L216.4,475.6L216.4,475.7L216.3,475.7L216.2,475.8L216,475.9L215.8,476.2L215.5,476.4L214.6,477.3L214.1,477.7L213.6,478.3L212.8,478.9L211.2,480.5L210.3,481.3L208.3,483.1L207.4,484.1L206.5,485L205.6,485.8L204.2,487L203.6,487.5L202.6,488.5L202.5,488.7L202.3,488.9L202.2,489.1L201.8,489.5L201.6,489.9L201.4,490.1L201.4,490.3L201.3,490.3L201.3,490.4L201.4,490.4L201.4,490.3L201.6,490.3" style="fill:none;fill-rule:nonzero;stroke:rgb(91,119,133);stroke-width:6.43px;"/>
                </g>
                <g transform="matrix(1,0,0,1,-5.68434e-14,-197.54)">
                    <path d="M224.6,475.3L224.5,475.4L224.4,475.4L224.4,475.5L224.2,475.6L224,475.9L223.2,476.5L222.8,476.9L222.3,477.3L221.7,477.8L220.4,479.1L219.7,479.7L219.1,480.5L218.3,481.3L217.3,482.2L215.6,483.9L214.7,484.6L213.8,485.2L213.2,485.9L212.6,486.4L211.5,487.5L211.1,488.1L210.9,488.5L210.5,488.8L210.3,489L210.3,489.3L210.5,489.3L210.7,489.2" style="fill:none;fill-rule:nonzero;stroke:rgb(91,119,133);stroke-width:6.43px;"/>
                </g>
                <g transform="matrix(1,0,0,1,-5.68434e-14,-198.74)">
                    <path d="M232.1,476.1L232.1,476L231,477.1L230.4,477.6L229.8,478.2L229.2,478.9L228.5,479.6L227.8,480.4L226.4,481.8L225.6,482.5L225,483.3L224.3,484L223.7,484.8L223,485.4L222.2,486.1L221.1,487.2L220.3,488.2L220.1,488.4L220,488.6L219.7,489L219.2,489.5L219.2,489.7L219.1,489.7L219.1,489.8L219.2,489.8" style="fill:none;fill-rule:nonzero;stroke:rgb(91,119,133);stroke-width:6.43px;"/>
                </g>
                <g transform="matrix(1,0,0,1,-5.68434e-14,-189.54)">
                    <path d="M232.9,476.5L232.7,476.5L232.7,476.6L232.6,476.7L232.5,476.7L232.3,476.9L232,477.1L231,478.1L230.5,478.5L230.2,478.8L230,478.9L229.9,479L229.7,479.3L229.5,479.5L229.5,479.6L229.4,479.7L229.3,479.9L229.2,479.9L229.1,480L229.1,480.1" style="fill:none;fill-rule:nonzero;stroke:rgb(91,119,133);stroke-width:6.43px;"/>
                </g>
                <g transform="matrix(1,0,0,1,-5.68434e-14,-189.34)">
                    <path d="M245.7,476.7L245.5,476.7L245.4,476.8L245.3,476.8L245.2,476.9L245,477L244.9,477.1L244.6,477.3L244.2,477.6L244,477.8L243.7,477.9L243.5,478L243.3,478.2L243,478.4L242.8,478.6L242.5,478.8L242.3,479L242.2,479.2L242,479.3L241.8,479.5L241.8,479.6L241.7,479.7L241.8,479.7" style="fill:none;fill-rule:nonzero;stroke:rgb(91,119,133);stroke-width:6.43px;"/>
                </g>
                <g transform="matrix(1,0,0,1,-5.68434e-14,-188.14)">
                    <path d="M258.1,475.7L258,475.7L258,475.8L257.7,475.8L257.5,476L257.4,476L257.3,476.1L257,476.2L256.4,476.6L256.1,476.9L255.8,477.1L255.5,477.4L255.1,477.7L254.5,478.3L254.2,478.5L253.7,479L253.5,479.1L253.5,479.2L253.4,479.3L253.4,479.4L253.3,479.4L253.3,479.5L253.4,479.5" style="fill:none;fill-rule:nonzero;stroke:rgb(91,119,133);stroke-width:6.43px;"/>
                </g>
                <g transform="matrix(1,0,0,1,-5.68434e-14,-188.64)">
                    <path d="M267.6,476.1L267.5,476.1L267.4,476.2L267.4,476.3L267.3,476.3L266.8,476.8L266.6,476.9L266.3,477.1L265.5,477.7L265.2,477.9L265,478L264.8,478.2L264.4,478.4L264,478.7L263.7,478.9L263.3,479.1L263,479.4L263,479.5L262.9,479.6" style="fill:none;fill-rule:nonzero;stroke:rgb(91,119,133);stroke-width:6.43px;"/>
                </g>
                <g transform="matrix(1,0,0,1,1e-05,-198.44)">
                    <path d="M285.1,476.3L284.9,476.3L284.8,476.4L284.6,476.4L284.6,476.5L284.5,476.5L284.5,476.6L284.4,476.7L284.3,476.7L284.1,476.9L284,476.9L283.9,477.1L283.5,477.4L282.2,478.7L281.7,479.3L281.1,479.9L280.4,480.5L279.8,481.1L279,481.8L278.1,482.5L276.5,484.1L275.1,485.3L274.5,485.9L274,486.5L273,487.5L272.6,488L272.2,488.4L271.9,488.8L271.7,489L271.7,489.2L271.7,489.1L272.3,489.1" style="fill:none;fill-rule:nonzero;stroke:rgb(91,119,133);stroke-width:6.43px;"/>
                </g>
                <g transform="matrix(1,0,0,1,1e-05,-197.94)">
                    <path d="M296.2,476.9L296,476.9L295.9,477L295.7,477.1L295.4,477.4L295.2,477.5L295,477.7L294.6,478L293.7,478.9L293,479.5L292.4,480.1L291.6,480.8L290.7,481.6L289.7,482.5L288.1,484.1L287.3,484.7L286.6,485.2L285.9,485.8L285.2,486.3L284.2,487.3L284,487.6L283.8,487.7L283.8,487.9L283.7,487.9L283.7,488L283.6,488L283.6,488.1L283.8,488.1" style="fill:none;fill-rule:nonzero;stroke:rgb(91,119,133);stroke-width:6.43px;"/>
                </g>
                <g transform="matrix(1,0,0,1,1e-05,-196.94)">
                    <path d="M307.3,475.8L307.1,476L306.9,476.1L306.8,476.3L306.4,476.7L305.9,477.1L304,479L303.3,479.8L301.7,481.2L301,482L300.2,482.7L299.5,483.3L298.4,484.4L297.8,484.9L297.1,485.5L295.7,486.9L295.4,487.3L295,487.9L294.9,488L294.9,488.1L295,488.2" style="fill:none;fill-rule:nonzero;stroke:rgb(91,119,133);stroke-width:6.43px;"/>
                </g>
                <g transform="matrix(1,0,0,1,1e-05,-198.74)">
                    <path d="M317.7,477.2L317.6,477.1L317.5,477.1L317.5,477L317.5,477.1L317.4,477.1L317.4,477.2L317.3,477.2L317,477.4L316.5,477.8L316,478.3L315.4,478.8L314.7,479.5L313.8,480.2L312.9,481L312,481.9L311.1,482.7L308.8,485L307.4,486.2L306.8,486.7L305.9,487.6L305.7,488L305.5,488.2L305.5,488.3L305.4,488.4L305.4,488.5L305.3,488.5L305.3,488.7L305.5,488.7L305.6,488.8L305.9,488.7" style="fill:none;fill-rule:nonzero;stroke:rgb(91,119,133);stroke-width:6.43px;"/>
                </g>
                <g transform="matrix(1,0,0,1,1e-05,-196.94)">
                    <path d="M323.8,477.2L323.8,477.1L323.7,477.1L323.6,477.2L323.5,477.2L323.4,477.3L323.1,477.5L322.6,477.8L322.1,478.2L321.4,478.8L320.6,479.4L319.6,480.1L318.7,480.8L317.9,481.6L317,482.4L316.1,483.1L315.3,483.6L313.9,484.6L313.4,485L313,485.4L312.7,485.8L312.6,485.9L312.3,486.5L312.3,486.7L312.4,486.8L312.6,486.9" style="fill:none;fill-rule:nonzero;stroke:rgb(91,119,133);stroke-width:6.43px;"/>
                </g>
                <g transform="matrix(1,0,0,1,1e-05,-198.14)">
                    <path d="M335.4,477.1L335.3,477.1L335.5,477.1L335.5,477L335.4,477L335.4,477.1L335.2,477.1L335.2,477.2L335,477.3L334.8,477.6L334.4,477.9L333.9,478.3L333.3,478.8L332.5,479.4L331.5,480L330.7,480.6L329.8,481.3L328.9,482.2L326.9,483.8L326.1,484.5L325.4,485L324.2,486L323.4,487L323,487.3L322.9,487.5L322.8,487.6L322.8,488.1L322.9,488.1L323,488.2L323.2,488.2" style="fill:none;fill-rule:nonzero;stroke:rgb(91,119,133);stroke-width:6.43px;"/>
                </g>
                <g transform="matrix(1,0,0,1,1e-05,-198.54)">
                    <path d="M345.7,477L345.8,477L345.8,476.9L345.7,476.9L345.8,476.9L345.7,476.9L345.7,477L345.6,477L344.4,478.2L343.7,478.8L342.8,479.6L341.8,480.5L340.7,481.4L339.6,482.4L338.7,483.3L337.6,484.3L336.6,485.2L335.7,485.9L333.9,487.7L333.6,488.1L333.4,488.5L333.4,488.6L333.6,488.7" style="fill:none;fill-rule:nonzero;stroke:rgb(91,119,133);stroke-width:6.43px;"/>
                </g>
                <g transform="matrix(1,0,0,1,1e-05,-199.14)">
                    <path d="M358.4,477.1L358.4,476.8L358.3,476.8L358.4,476.8L358.2,476.8L358.2,476.9L358,477L357.5,477.3L356.7,477.8L355.8,478.5L354.8,479.2L353.7,480.1L352.6,480.9L351.4,481.7L350.3,482.6L349.3,483.4L347.7,485L346.8,485.7L346.1,486.3L345.5,486.9L344.9,487.4L344.4,488L344,488.4L343.8,488.8L343.7,488.9L343.7,489.4L343.9,489.4" style="fill:none;fill-rule:nonzero;stroke:rgb(91,119,133);stroke-width:6.43px;"/>
                </g>
                <g transform="matrix(1,0,0,1,1e-05,-195.84)">
                    <path d="M364.2,476.6L364.1,476.6L363.5,476.9L362.5,477.5L361.8,477.9L361,478.4L360.2,479.1L357.8,480.9L357.1,481.5L356.4,482L355.7,482.4L355.1,482.8L354.5,483.3L354,483.8L353.4,484.3L352.3,485.4L352.1,485.7L352,486L352,486.3L352.1,486.3" style="fill:none;fill-rule:nonzero;stroke:rgb(91,119,133);stroke-width:6.43px;"/>
                </g>
                <g transform="matrix(1,0,0,1,1e-05,-189.84)">
                    <path d="M366.3,475.6L366.1,475.8L366,476L365.9,476.1L365.3,476.4L365.1,476.6L364.7,476.8L364.4,477.1L364.1,477.3L363.6,477.7L363,478L362.4,478.4L361.9,478.8L361.3,479.2L360.5,480L359.9,480.5L359.5,480.9L359.2,481.3" style="fill:none;fill-rule:nonzero;stroke:rgb(91,119,133);stroke-width:6.43px;"/>
                </g>
                <g transform="matrix(1,0,0,1,1e-05,-211.44)">
                    <path d="M245.9,487.8L245.9,487.7L245.8,487.7L245.8,487.8L245.7,487.8L245.5,488L245.2,488.2L244.8,488.5L244.3,488.8L243.9,489.2L243.3,489.5L242.7,489.9L242.2,490.1L241.8,490.4L241.7,490.4L241.5,490.6L241.5,490.8" style="fill:none;fill-rule:nonzero;stroke:rgb(91,119,133);stroke-width:6.43px;"/>
                </g>
                <g transform="matrix(1,0,0,1,1e-05,-210.44)">
                    <path d="M256.3,487L256.1,487L255.9,487.2L255.5,487.5L254.5,488.1L253.9,488.5L253.3,488.8L252.5,489.4L252.2,489.6L251.9,489.9L251.7,490L251.6,490.2L251.6,490.5" style="fill:none;fill-rule:nonzero;stroke:rgb(91,119,133);stroke-width:6.43px;"/>
                </g>
                <g transform="matrix(1,0,0,1,1e-05,-210.44)">
                    <path d="M268,487L267.9,487L267.9,487.1L267.3,487.7L267.1,487.8L266.8,488.1L266.5,488.3L266.2,488.6L265.9,488.8L265.1,489.2L264.7,489.5L264.4,489.6L264.1,489.8L263.9,489.9L263.9,490L263.8,490L263.6,490.2L263.5,490.2L263.5,490.3L263.4,490.3L263.4,490.4L263.3,490.4L263.2,490.5" style="fill:none;fill-rule:nonzero;stroke:rgb(91,119,133);stroke-width:6.43px;"/>
                </g>
                <g transform="matrix(1,0,0,1,1e-05,-209.54)">
                    <path d="M274.8,487.2L274.7,487.2L274.7,487.3L274.6,487.3L274.3,487.6L274.2,487.8L274,487.8L273.5,488.3L273.5,488.5L273.1,488.9L273,489.1L273,489.4" style="fill:none;fill-rule:nonzero;stroke:rgb(91,119,133);stroke-width:6.43px;"/>
                </g>
            </g>
            <g transform="matrix(1,0,0,1,1e-05,-212.84)">
                <path d="M190.4,595.8L190.2,595.7L190.2,595.4L190.1,595.4L190.2,595.4L190.2,595.3L190.1,595.3L190.1,593.9L190,593.8L190,593.5L190.1,593.4L190.1,593.2L190,593.1L190,592.9L189.9,592.8L190.1,592.8L190.1,592.7L190,592.7L189.9,592.6L189.9,591.7L189.8,591.5L189.8,591L189.7,591L189.7,589.4L189.6,589.2L189.7,589.1L189.7,588.5L189.6,588.5L189.6,587.8L189.5,587.7L189.5,587.5L189.6,587.5L189.6,585.8L189.7,585.6L189.7,584.5L189.8,584.5L189.8,584.4L189.7,584.3L189.7,583.2L189.8,583.1L189.8,582.9L189.9,582.8L189.9,582.6L189.8,582.4L189.8,581.9L189.9,581.8L189.9,580.9L190,580.9L190,580.7L189.9,580.7L189.9,579.9L190,579.7L190,579.4L189.9,579L189.9,578.5L190,578.3L190,577.3L190.1,576.9L190.1,575.9L190.2,575.8L190.2,575.7L190.3,575.5L190.3,571.5L190.4,571.4L190.4,570.1L190.5,569.9L190.5,565.8L190.6,565.1L190.6,564.9L190.5,564.7L190.5,564.2L190.6,563.7L190.6,562.7L190.8,561.7L190.8,559.7L190.9,559.3L190.8,558.9L190.9,558.5L190.9,558L191,557.5L191,557L191.1,556.8L191.1,554.9L191.2,554.6L191.2,553.9L191.3,553.6L191.3,553.2L191.4,552.9L191.4,551.9L191.5,551.8L191.5,548.3L191.4,548.2L191.4,547.7L191.5,547.3L191.6,547L191.6,543L191.7,542.7L191.7,542.2L191.6,542L191.6,540.3L191.7,540.1L191.7,537.7L191.8,537.3L191.8,535.5L191.7,535L191.7,533.6L191.6,533.1L191.6,532.5L191.5,531.8L191.5,531.1L191.4,530.4L191.4,528.3L191.3,527.6L191.3,526.1L191.2,525.9L191.3,525.5L191.3,525L191.2,524.6L191.2,523.7L191.3,523.1L191.3,521.3L191.2,521.1L191.2,514.4L191.1,514.1L191.1,513L191,512.7L191,508.2L191.2,507.8L191.2,507.2L191.1,507.1L191.1,505.5L191.2,505.2L191.2,504.2L191.3,503.8L191.4,503.5L191.4,501.5L191.3,501.3L191.3,498.6L191.2,498.2L191.3,497.7L191.3,496.1L191.2,495.6L191.2,493.2L191.1,493.1L191,492.9L191,492.6L190.9,492.5L190.9,492.1L190.8,492.1L190.9,492.1L190.9,492L191,492L190.9,492L190.9,492.2L191,492.2L191.9,491.1L191.7,491.1L191.7,491L191.8,491L191.8,490.9L191.7,490.9L191.8,490.9L191.8,490.8L191.7,490.8L191.8,490.8L191.9,490.7L191.9,490.6L192,490.6L192,490.5L192.2,490.5L192.2,490.4L192.3,490.4L192.5,490.3L192.6,490.3L192.7,490.2L193,490.2L193.6,490L194,489.9L194.3,489.8L194.7,489.7L195,489.7L195.4,489.6L195.6,489.5L195.7,489.5L196.1,489.4L196.3,489.3L197.3,489.3L197.4,489.2L199,489.2L199.4,489.3L201.6,489.3L202.2,489.2L205.5,489.2L206,489.3L211.1,489.3L211.6,489.4L212.9,489.4L213.3,489.5L216.4,489.5L216.9,489.4L220.2,489.4L220.5,489.5L224.8,489.5L225.3,489.4L226.4,489.4L227,489.3L228.4,489.3L228.8,489.2L229.7,489.2L230.2,489.1L231.1,489.1L231.6,489L240.4,489L241,489.1L241.6,489.1L242.3,489.2L253.2,489.2L253.5,489.3L255.8,489.3L256,489.4L256.4,489.4L256.8,489.3L256.9,489.3L257.1,489.4L261.3,489.4L261.8,489.5L276.2,489.5L276.8,489.6L280.4,489.6L281,489.5L284.7,489.5L285.1,489.6L288.8,489.6L288.9,489.5L295.2,489.5L295.7,489.6L296.8,489.6L297.3,489.7L298,489.6L302.3,489.6L303,489.5L306.1,489.5L306.7,489.4L307.8,489.4L308.3,489.3L309.9,489.3L310.1,489.2L312.8,489.2L313.1,489.1L314.5,489.1L314.9,489L321.2,489L321.7,488.9L322.1,488.9L322.6,489L325.9,489L326.6,488.9L329.2,488.9L329.9,488.8L341.7,488.8L342.2,488.9L343.9,488.9L344.4,489L346.3,489L346.9,489.1L347.4,489.1L347.9,489.2L348.3,489.2L348.8,489.3L349.8,489.3L350.3,489.4L353,489.4L353.3,489.3L358.5,489.3L358.9,489.4L359.9,489.4L360.4,489.5L360.9,489.5L361.5,489.6L362.1,489.6L362.8,489.7L364.1,489.7L364.4,489.8L366.3,489.8L366.2,489.8L366.3,489.8L366.2,489.8L366.3,489.8L366.2,489.8L366.3,489.8L366.2,489.8L366.3,489.8L366.2,489.8L366.4,489.8L366.2,489.8L366.3,489.8L366,489.8L367,489.4L367,489.3L367.1,489.3L367,489.3L367,489.4L367.1,489.4L367,489.4L367.1,489.4L367.1,489.5L367.2,489.5L367.2,489.6L367.3,489.6L367.3,489.7L367.4,489.7L367.4,490.1L367.6,490.5L367.6,490.8L367.7,491.2L367.7,491.5L367.8,491.8L367.8,492.2L368,493L368.1,493.2L368.1,494L368.2,494.3L368.2,494.7L368.3,495.2L368.3,497.9L368.4,498.4L368.3,498.7L368.3,500.6L368.4,501.1L368.3,501.5L368.3,501.8L368.4,502.1L368.4,503.1L368.3,503.3L368.3,505L368.2,505.6L368.2,506.7L368.1,506.9L368.1,508.8L368,509.2L368,509.6L368.1,509.8L368.1,511.4L368,511.6L368,511.9L368.1,512.1L368.1,515.5L368,515.7L368,516.6L368.1,517L368.1,518.1L368,518.4L368,519L368.1,519.1L368.1,519.5L367.9,520.3L367.9,521.1L367.8,521.2L367.8,521.4L367.7,521.8L367.7,524.2L367.6,524.5L367.7,524.7L367.7,525.4L367.6,525.8L367.6,526.4L367.5,526.6L367.5,529L367.4,529.5L367.4,531.1L367.3,531.2L367.3,531.8L367.4,532L367.4,532.9L367.5,533L367.5,533.2L367.4,533.6L367.4,534.8L367.3,535.3L367.3,535.7L367.4,535.8L367.4,536.4L367.3,536.6L367.3,536.8L367.2,537.2L367.2,538.3L367.1,538.5L367.1,539.9L367.2,540.1L367.2,540.6L367.1,540.7L367,540.9L367,541L367.1,541.2L367.1,541.9L367,542.2L367,543.7L367.1,543.9L367.1,544.3L367,544.4L367,546L366.9,546.1L366.9,546.4L366.8,546.5L366.8,547.5L366.7,547.6L366.7,547.7L366.8,547.7L366.8,548.5L366.6,548.7L366.6,548.9L366.8,549L366.8,549.1L366.7,549.2L366.7,549.6L366.6,549.7L366.6,551.9L366.5,552.1L366.5,552.7L366.6,552.9L366.6,553.8L366.7,554L366.7,554.5L366.6,554.7L366.6,555.3L366.7,555.5L366.7,556.6L366.8,557.1L366.8,558.8L366.7,559.3L366.6,560L366.6,560.9L366.5,561.3L366.5,562.1L366.6,562.3L366.6,562.4L366.5,562.6L366.5,562.8L366.4,562.9L366.4,564.2L366.3,564.3L366.3,564.7L366.2,564.8L366.2,569.4L366.3,569.5L366.3,569.8L366.4,569.9L366.4,574L366.3,574.2L366.3,574.8L366.4,575.1L366.4,575.5L366.3,575.9L366.3,577.2L366.2,577.6L366.2,579.1L366.1,579.2L366.1,579.5L366.2,579.6L366.2,580L366.1,580L366.1,580.5L366.2,580.5L366.2,582L366.3,582.1L366.3,582.3L366.2,582.3L366.2,582.6L366.3,582.7L366.3,583.4L366.2,583.4L366.2,583.6L366.3,583.6L366.3,583.8L366.2,583.9L366.2,584.2L366.3,584.3L366.3,584.5L366.2,584.6L366.2,585.1L366.3,585.2L366.3,585.5L366.2,585.7L366.2,586.9L366.1,587L366.1,587.2L366.2,587.3L366.2,589.3L366.3,589.3L366.3,589.4L366.2,589.4L366.2,590.3L366.2,590.2L366.1,590.3L366.7,591.8L366.8,592.1L366.8,592.7L366.8,592.6L366.8,592.7L366.7,592.7L366.7,592.9L366.4,593.2L366.4,593.3L366.3,593.3L366.3,593.4L366.2,593.4L366.2,593.5L366,593.5L366,593.6L366.1,593.6L366.1,593.7L365.9,593.7L365.9,593.8L365.8,593.8L365.9,593.9L365.8,593.9L365.7,594L365.7,594.1L365.5,594.1L365.3,594.2L365,594.3L364.8,594.4L364.7,594.5L364.5,594.5L364.4,594.6L364.2,594.6L364.2,594.7L364.1,594.7L364,594.8L363.9,594.8L363.8,594.9L363.6,594.9L363.6,595L363.4,595L363.4,595.1L363.1,595.1L363,595.2L362.8,595.2L362.6,595.3L362.4,595.3L362.1,595.4L361.8,595.4L361.5,595.5L361.3,595.5L361.2,595.6L360.9,595.6L360.8,595.7L360.6,595.7L360.5,595.8L360.2,595.8L360.1,595.9L359.9,595.9L359.8,596L359.5,596L359.2,596.1L358.7,596.1L358.6,596.2L357.9,596.2L357.8,596.3L356,596.3L355.6,596.2L355,596.2L354.6,596.1L354.2,596.1L353.7,596L352.7,596L352.2,595.9L350.4,595.9L349.7,595.8L349.1,595.7L348.1,595.7L347.6,595.6L345.9,595.6L345.6,595.5L345.2,595.5L345.1,595.6L340.8,595.6L340.5,595.7L338.2,595.7L337.6,595.6L336.6,595.6L336.1,595.5L335.5,595.4L334.8,595.4L334,595.3L333.2,595.3L332.3,595.2L329.9,594.9L329.2,594.8L326.8,594.4L326.3,594.3L325.2,594.3L324.7,594.2L323.4,594.2L322.9,594.1L321.5,594.1L321.3,594L317.5,594L317,594.1L309.2,594.1L308.5,594.2L304,594.2L303.2,594.3L300,594.3L299,594.4L298,594.4L296.8,594.3L295.7,594.4L292.6,594.4L291.6,594.5L288.8,594.5L288,594.6L287.1,594.6L286.3,594.7L284.6,594.7L283.8,594.8L281.5,594.8L280.8,594.7L280.3,594.7L279.7,594.6L279.1,594.6L278.5,594.5L275.3,594.5L274.9,594.4L274.4,594.3L274,594.3L273,594.1L272.5,594.1L271.5,593.9L271.1,593.9L270.6,593.8L269.7,593.8L269.3,593.7L267.3,593.7L266.8,593.6L266.4,593.6L265.8,593.5L265.2,593.5L264.7,593.4L264.1,593.4L263.1,593.2L262.6,593.2L262,593.1L261.3,593L257,593L256.3,593.1L254,593.1L253.5,593L250.9,593L250.5,593.1L249.1,593.1L248.7,593.2L248.2,593.1L244.8,593.1L244.1,593.2L241.8,593.2L241,593.3L239.7,593.3L239.1,593.2L237.6,593.2L237,593.1L235.3,593.1L234.8,593L231.7,593L231.3,592.9L230.9,592.9L230.7,592.8L230.2,592.8L229.8,592.7L229.3,592.7L228.8,592.6L222.5,592.6L222.4,592.5L222.1,592.6L221.3,592.6L221,592.5L220.6,592.6L216.8,592.6L216.3,592.5L213.6,592.5L213,592.6L211.6,592.6L210,592.8L209.4,592.8L208.7,592.9L203.5,592.9L203,593L199,593L198.7,593.1L197.4,593.1L197,593.2L195.7,593.2L195.2,593.3L194.2,593.3L193.7,593.4L192.1,593.4L192,593.3L191.6,593.3L191.5,593.4L190.6,593.4L190.5,593.5L189.8,593.5L189.7,593.6L189.3,593.6L189.3,593.7L189.2,593.7L189.6,593.7L190.4,595.8Z" style="fill:none;fill-rule:nonzero;stroke:rgb(15,46,61);stroke-width:2.23px;"/>
            </g>
            <g transform="matrix(1,0,0,1,1e-05,-182.84)">
                <path d="M192.9,475.7L192.8,475.7L192.8,475.6L192.8,475.7L192.8,475.6L192.7,475.6L193.9,475.6L194,475.5L195.7,475.5L196.1,475.4L197.1,475.4L197.5,475.3L198.6,475.3L199.2,475.2L201.6,475.2L202,475.3L208.6,475.3L209.2,475.4L213.1,475.4L213.5,475.3L219.4,475.3L220.1,475.2L220.6,475.2L221.2,475.1L221.8,475.1L223.6,474.8L224.3,474.8L224.9,474.7L226.6,474.7L227.1,474.6L228.2,474.6L228.7,474.5L233.7,474.5L234.2,474.6L234.8,474.6L235.3,474.5L237.7,474.5L238.2,474.4L244.1,474.4L244.4,474.5L247.8,474.5L248.4,474.4L251.1,474.4L251.7,474.3L253.8,474.3L254.5,474.2L255.3,474.2L256,474.1L260.3,474.1L261.1,474.2L261.8,474.2L262.3,474.3L263.8,474.3L264.3,474.4L266.2,474.4L266.4,474.5L268,474.5L268.1,474.6L273.4,474.6L273.8,474.7L276.6,474.7L277,474.8L278,474.8L278.5,474.9L280.3,474.9L280.9,475L282.1,475L282.6,474.9L285.1,474.9L285.6,474.8L286,474.9L288.3,474.9L288.8,474.8L289.9,474.8L290.3,474.7L294.6,474.7L295.1,474.6L297.2,474.6L297.8,474.7L301.1,474.7L301.7,474.6L302.4,474.6L303,474.5L306.2,474.5L306.9,474.4L308.8,474.4L309.4,474.5L312.3,474.5L312.8,474.6L314.8,474.6L315.4,474.7L319.4,474.7L319.8,474.6L321.5,474.6L321.9,474.7L323.8,474.7L324.2,474.6L325.1,474.6L325.5,474.5L327.6,474.5L328.2,474.4L328.9,474.4L329.7,474.3L331.3,474.3L332,474.2L332.8,474.2L333.6,474.3L336.5,474.3L336.9,474.4L338.7,474.4L339,474.5L342.7,474.5L342.9,474.6L343.7,474.6L344.1,474.7L344.4,474.7L344.6,474.8L345,474.8L345.1,474.9L345.4,474.9L345.7,475L346.7,475L346.8,475.1L348.2,475.1L348.2,475.2L348.7,475.2L348.7,475.3L349.3,475.3L349.4,475.4L350,475.4L350.4,475.5L350.7,475.5L350.9,475.6L353,475.6L353.1,475.7L354.6,475.7L354.8,475.8L357.2,475.8L357.3,475.7L357.6,475.7L357.9,475.6L358.8,475.6L358.9,475.5L359.7,475.5L359.8,475.4L360.4,475.4L360.5,475.3L362.4,475.3L362.4,475.2L362.6,475.2L362.5,475.2L362.8,475.2L363,475.1L363.4,475.1L363.4,475L363.5,475L363.5,474.9L363.5,475L363.5,474.9L363.4,474.9L363.5,475L363.5,474.9L363.3,474.9" style="fill:white;fill-rule:nonzero;stroke:rgb(15,46,61);stroke-width:2.23px;"/>
            </g>
            <g transform="matrix(1,0,0,1,0,-199.14)">
                <path d="M234.6,486.1L234.7,486.1L234.7,485.5L234.6,485.4L234.6,485.3L234.5,485.3L234.5,484.8L234.4,484.7L234.4,483.4L234.3,483.4L234.3,482.7L234.1,482.6L234.1,482.4L234.2,482.3L234.2,481.9L234.3,481.9L234.3,481.8L234.4,481.8L234.4,481.5L234.6,481.5L234.6,481.3L234.7,481.3L234.8,481.2L234.9,481.2L235,481.1L235.3,481.1L235.6,481L236,481L236.4,480.9L236.9,480.8L237.4,480.8L237.8,480.7L238.3,480.7L238.7,480.6L239.4,480.6L239.7,480.5L240.1,480.4L240.8,480.4L241,480.3L243.5,480.3L243.9,480.4L247.4,480.4L247.6,480.3L249.4,480.3L249.6,480.2L251,480.2L251.1,480.1L254.1,480.1L254.4,480L257,480L257.4,480.1L258.3,480.1L258.8,480L261,480L261.1,479.9L261.8,479.9L262.1,479.8L263.8,479.8L264.1,479.7L264.9,479.7L264.9,479.6L267.4,479.6L267.5,479.7L267.9,479.7L268,479.8L268.6,479.8L269,480L269.2,480L269.3,480.1L269.6,480.1L269.7,480.2L270.1,480.2L270.1,480.3L270.5,480.3L270.6,480.4L271.1,480.4L271.2,480.5L271.4,480.5L271.5,480.6L271.8,480.6L271.8,480.7L272.3,480.7L272.3,480.8L272.2,480.8L272.3,480.9L272.2,480.9L272.2,481L272.3,481L272.3,481.8L272.4,481.9L272.4,483.1L272.5,483.2L272.5,483.4L272.4,483.5L272.4,483.7L272.5,483.8L272.5,484L272.6,484L272.6,484.1L272.5,484.1L272.5,484.2L272.6,484.3L272.6,484.6L272.5,484.7L272.5,484.9L272.4,485L272.4,485.1L272.3,485.1L272.3,485.3L272.2,485.3L272.1,485.4L271.9,485.4L271.8,485.3L271.7,485.3L271.5,485.5L271.3,485.5L271.3,485.6L271.2,485.6L271.1,485.7L270.9,485.8L270.8,485.9L270.7,485.9L270.6,486L270.5,486L270.4,486.1L270.1,486.1L270.1,486.2L269.4,486.2L269.3,486.3L268.8,486.3L268.6,486.4L267.9,486.4L267.8,486.5L267,486.5L266.9,486.6L266.4,486.6L266.3,486.5L263.1,486.5L263,486.6L261.5,486.6L261.4,486.5L260.4,486.5L260.3,486.4L259.6,486.4L259.4,486.3L257.9,486.3L257.8,486.2L257.1,486.2L257,486.1L254.5,486.1L254.4,486L253.3,486L253.2,485.9L251.7,485.9L251.6,485.8L249.5,485.8L249.1,485.9L246.8,485.9L246.7,485.8L245.2,485.8L245.1,485.9L242.4,485.9L242.3,486L241.4,486L241.3,486.1L240.1,486.1L239.9,486.2L239.3,486.2L239.2,486.3L238.9,486.3L238.8,486.2L237.7,486.2L237.7,486.1L237.1,486.1L237.1,486L236.8,486L236.8,485.9L236.7,485.9L236.7,486" style="fill:white;fill-rule:nonzero;stroke:rgb(15,46,61);stroke-width:2.23px;"/>
            </g>
            <g transform="matrix(1.18265,0,0,1.18265,-44.229,-59.6087)">
                <g transform="matrix(1,0,0,1,0,-137.64)">
                    <path d="M250.9,444.7L250.9,444.5L250.9,444.6L250.8,444.6L250.8,444.7L250.7,444.7L250.7,445L250.5,445.6L250.3,446.4L249.9,447.5L249.6,448.6L249.3,449.6L248.9,450.7L248.7,451.7L248.4,452.8L248.1,453.8L247.9,454.8L247.8,455.7L247.5,456.5L247.3,457.3L247.2,458.1L247.1,458.7L247.1,460.2L247.2,460.2" style="fill:rgb(255,190,190);fill-rule:nonzero;stroke:rgb(15,46,61);stroke-width:1.89px;"/>
                </g>
                <g transform="matrix(1,0,0,1,0,-128.04)">
                    <path d="M249.9,444.2L250,444.2L250,444.1L250.1,444.1L250.2,444L251.7,444L252.2,444.1L252.7,444.3L253.3,444.4L254.1,444.8L254.4,445L254.6,445.3L254.7,445.4L254.7,445.5L254.8,445.7L254.8,446.5L254.7,446.7L254.5,447.2L254.2,447.7L253.7,448.3L252.3,449.5L251.6,450L251,450.4L249.8,450.8L249.4,451L248.9,451L248.8,451.1L248.5,451.1L248.5,451L248.2,451L248.2,450.9L248.1,450.9L248.1,450.6" style="fill:rgb(255,190,190);fill-rule:nonzero;stroke:rgb(15,46,61);stroke-width:1.89px;"/>
                </g>
                <g transform="matrix(1,0,0,1,0,-137.14)">
                    <path d="M257.5,457L257.1,457L257.1,457.1L257.2,457.1L257.1,457.1L257.8,457.1L257.9,457L258.3,456.9L258.8,456.7L259.4,456.5L260.2,456.1L260.8,455.7L262,454.7L263,453.7L263.2,453.4L263.4,453.2L263.8,452.6L263.9,452.4L264,452.1L264.2,451.6L264.3,451.2L264.4,450.9L264.5,450.4L264.5,450.2L264.4,450L264.3,449.6L263.7,448.4L263.3,447.8L262.9,447.5L262.6,447.3L262.3,447.2L261.9,447L261.6,447L261,446.8L260.9,446.7L260.3,446.7L260.2,446.8L260,446.8L260,446.9L259.9,447L259.8,447L259.8,447.1L259.6,447.3L259.4,447.6L259.2,447.8L259.2,447.9L259,448.4L258.8,448.6L258.8,448.9L258.6,449.3L258.4,449.8L258.3,450.1L258.1,450.4L257.9,451L257.9,451.7L257.7,452.3L257.5,453.5L257.5,455.5L257.6,455.9L257.8,456.3L258.2,456.7L258.5,456.9L258.6,457L258.7,457L258.9,457.2L259.5,457.4L260,457.4L260.1,457.5L261.5,457.5L261.8,457.4L262.7,457.4L262.8,457.3L263.6,457.3" style="fill:rgb(255,190,190);fill-rule:nonzero;stroke:rgb(15,46,61);stroke-width:1.89px;"/>
                </g>
                <g transform="matrix(1,0,0,1,0,-131.04)">
                    <path d="M268,447.4L267.9,447.3L267.9,447.1L267.7,447.1L267.7,447.3L267.5,447.5L267.2,448.1L267.2,448.3L266.6,449.5L266.4,449.8L266.4,450.1L266.3,450.3L266.3,450.4L266.2,450.6L266.2,450.7L266.3,450.8L266.3,451.2L266.4,451.2L266.4,451.3L266.5,451.3L266.6,451.4L266.7,451.4L266.8,451.5L267,451.5L267.3,451.4L267.8,451.3L268.3,451.1L268.9,450.8L269.7,450.2L269.9,449.9L270.1,449.5L270.2,449.4L270.3,449.2L270.3,448.9L270.4,448.8L270.4,448.5L270.2,448.3L270.2,448.2L269.9,447.9L269.7,447.8L269.4,447.5L269,447.3L268.5,447.1L268.1,446.9L267.6,446.8L267.2,446.7L267,446.6L266.7,446.6L266.8,446.6L267,446.7L267.3,446.9L267.7,447.1" style="fill:rgb(255,190,190);fill-rule:nonzero;stroke:rgb(15,46,61);stroke-width:1.89px;"/>
                </g>
                <g transform="matrix(1,0,0,1,0,-127.84)">
                    <path d="M277.7,444.1L277.7,442.2L277.6,442.1L277.6,441.9L277.5,441.8L277.5,441.7L277.4,441.6L277.3,441.4L277.2,441.3L277.1,441.1L277,441L276.9,441L276.6,440.9L276.2,440.7L275.6,440.7L275.2,440.8L274.7,441L274.3,441.2L273.8,441.5L273.4,441.8L273.3,442L273.1,442.1L272.7,442.7L272.7,443L272.6,443.3L272.6,443.7L272.7,443.8L272.9,444.2L272.9,444.3L273.2,444.5L273.6,444.9L273.7,444.9L273.8,445L274,445.1L274.5,445.1L274.9,445.2L275.9,445.2L276.1,445.1L276.4,445.1L276.8,445L277.1,444.9L277.3,444.8L277.5,444.8L277.5,444.7L277.6,444.7L277.6,444.6L277.7,444.5L277.8,444.5L277.8,444.2L277.7,444.2L277.7,444.3L277.7,444.2L277.7,444.3L277.6,444.3L277.7,444.3L277.7,444.6L277.6,444.7L277.6,445.3L277.4,445.7L277.4,446L277.3,446.2L277.3,446.8L277.2,447.3L277.1,447.9L277.1,448.8L277,449.1L277,449.6L276.9,450.1L276.9,451.5L276.8,451.7L276.8,452.1L276.7,452.5L276.7,452.8L276.6,453.1L276.5,453.2L276.5,453.3L276.2,453.6L276,453.6L275.9,453.7L275.6,453.9L275,454.1L274.7,454.1L274.3,454.2L273.9,454.1L273.5,454.1L273.2,454L272.4,453.8L272,453.6L271.7,453.5L271.3,453.3L270.8,452.8L270.6,452.7L270.6,452.6L270.5,452.5L270.3,452.1L270.2,452L270.2,451.6L270.1,451.5L270.1,450.8L270.2,450.4L270.3,450.3L270.3,450.2L270.4,450L270.5,449.9L270.7,449.5L270.8,449.1L271,448.9L271.2,448.6L271.5,448.3L271.7,448.2L271.8,448.1L271.9,448.1L271.9,448L272.6,448L272.9,448.1L273.2,448.1L273.3,448.2L273.5,448.2L273.8,448.3L274.2,448.5L275,448.7L275.3,448.9L275.7,449.1L276,449.3L276.4,449.5L276.7,449.6L276.9,449.8L277,449.8L277.3,450L277.5,450.2L277.8,450.2L278,450.4L278.1,450.4L278.1,450.5L278.2,450.5L278.2,450.6L278.3,450.6L278.3,450.5L278.2,450.5L278.3,450.5L278.4,450.4L278.4,450.2L278.5,450.2L278.7,450" style="fill:rgb(255,190,190);fill-rule:nonzero;stroke:rgb(15,46,61);stroke-width:1.89px;"/>
                </g>
            </g>
            <g transform="matrix(1,0,0,1,0.903102,-104.54)">
                <path d="M223.1,434.9L223,434.9L223,434.7L225.9,434.7L226.4,434.6L230.6,434.6L231.1,434.7L233.4,434.7L233.9,434.8L234.8,434.8L235.3,434.9L240.6,434.9L241,434.8L241.6,434.8L241.7,434.9L243.4,434.9L243.8,435L244.2,435L244.6,435.1L244.8,435.1L245.1,435.2L247.2,435.2L247.7,435.3L249.2,435.3L249.7,435.2L254.2,435.2L254.8,435.3L255.9,435.3L256.5,435.4L264,435.4L264.5,435.5L264.9,435.6L265.9,435.6L266.4,435.7L267.4,435.7L267.9,435.8L269.1,435.8L269.7,435.9L270.2,435.9L270.7,436L271.3,436L272.1,436.1L272.8,436.1L273.4,436.2L274,436.2L274.6,436.3L275.3,436.4L277.1,436.7L277.8,436.7L278.4,436.8L280.2,436.8L280.7,436.9L282.7,436.9L283.1,437L286.2,437L286.7,436.9L287.8,436.9L288.2,436.8L288.7,436.8L289.3,436.7L290.3,436.7L290.8,436.6L291.3,436.6L291.7,436.5L292.1,436.5L292.6,436.4L293.1,436.4L293.6,436.5L299.2,436.5L299.6,436.6L301.1,436.6L301.5,436.7L301.9,436.7L302.4,436.8L307.1,436.8L307.5,436.9L308.9,436.9L309.3,437L311,437L311.3,436.9L313,436.9L313.4,436.8L314.7,436.8L315.1,436.7L315.6,436.6L316.6,436.6L317,436.5L317.4,436.5L317.9,436.4L318.4,436.4L319.4,436.2L319.8,436.2L320.6,436L320.9,436L321,435.9L321.2,435.9L321.3,435.8L321.5,435.8L321.7,435.6L321.8,435.6L321.8,435.5L321.9,435.5L321.8,435.5L321.8,435.4L321.7,435.4L321.7,435.3L321.6,435.3L321.6,435.2L321.5,435.2L321.5,435.3" style="fill:white;fill-rule:nonzero;stroke:rgb(15,46,61);stroke-width:2.23px;"/>
            </g>
            <g transform="matrix(1.05168,0,0,1.42132,-21.8222,-139.203)">
                <g transform="matrix(1,0,0,1,0,-81.24)">
                    <path d="M294.6,420L294.6,419.9L294.5,419.9L294.5,420.2L294.4,420.3L294.4,420.7L294.2,421.1L294.1,421.6L293.9,421.9L293.8,422.2L293.7,422.6L293.5,423L293.4,423.3L293.2,423.7L293.1,424.2L292.9,424.4L292.9,424.6L292.8,425L292.7,425.3L292.7,425.6L292.5,426.1L292.4,426.6L292.3,427.2L292.2,427.7L292.1,427.8L292.1,428.4" style="fill:white;fill-rule:nonzero;stroke:rgb(15,46,61);stroke-width:1.76px;"/>
                </g>
                <g transform="matrix(1,0,0,1,0,-84.04)">
                    <path d="M294.9,424.4L294.6,424.1L294.7,424.1L294.7,424.4L294.8,424.7L294.9,425.1L294.9,425.2L295,425.5L295.1,425.9L295.2,426.2L295.4,426.6L295.5,426.9L295.7,427.1L295.9,427.4L296.1,427.6L296.4,427.8L296.7,427.9L297.5,428.1L297.8,428.2L298.2,428.1L298.6,428.1L299.1,428L299.5,427.8L300.3,427.2L300.6,427L300.7,426.8L301.1,426.4L301.6,426L301.7,425.7L301.9,425.5L302.2,425L302.5,424.8L302.6,424.6L302.8,424.1L303,423.7L303,423.5L303.1,423.3L303.2,423L303.2,422.7L303.3,422.5L303.3,422.2L303.2,422.2L303.2,422.3L303.3,422.3L303.1,422.3L303.1,422.2L303.1,422.3L303.2,422.3L303.2,422.2L303.3,422.2L303.2,422.2L303.3,422.2L303.2,422.2L303.3,422.2L303.3,422.4L303.2,422.4L303.2,422.5L303.1,422.9L302.9,423.3L302.8,423.7L302.8,424.2L302.7,424.6L302.5,425L302.3,425.3L302.1,425.8L302,426.3L301.9,426.6L301.9,426.8L301.8,427L301.8,427.3L301.7,427.7L301.6,427.8L301.6,428.4L301.7,428.6L301.8,428.7L301.8,428.8L301.9,428.8L301.9,428.9L302.4,428.9" style="fill:white;fill-rule:nonzero;stroke:rgb(15,46,61);stroke-width:1.76px;"/>
                </g>
                <g transform="matrix(1,0,0,1,0,-81.24)">
                    <path d="M309.8,424.5L309.8,424.2L309.6,424L309.6,423.4L309.5,423.4L309.5,422.9L309.4,422.8L309.4,422.7L309.2,422.5L309.1,422.5L309,422.4L308.9,422.4L308.8,422.3L308.6,422.3L308.4,422.4L308.1,422.4L307.7,422.6L307.2,422.8L306.2,423.4L305.7,423.9L305.6,424.1L305.3,424.3L305.2,424.4L305.1,424.6L305,424.7L305,424.9L304.9,424.9L304.9,425.1L305,425.2L305,425.3L305.2,425.5L305.2,425.6L305.3,425.7L305.3,425.8L305.5,425.8L305.6,425.9L305.8,426L306.5,426L306.7,425.9L307.1,425.8L307.6,425.6L308.1,425.3L308.5,425L308.8,424.8L309,424.6L309.3,424.4L309.5,424.2L309.6,424L309.7,424L309.7,423.9L309.8,423.8L309.8,423.7L309.6,423.7L309.6,423.6L309.7,423.6L309.7,423.5L309.6,423.5L309.7,423.5L309.6,423.5L309.7,423.5L309.7,423.6L309.8,423.6L309.7,423.6L309.7,423.7L309.8,423.7L309.8,423.8L310,423.9L310.1,424L310.1,424.1L310.2,424.2L310.3,424.4L310.4,424.5L310.4,424.7L310.5,424.8L310.5,424.9L310.6,424.9L310.6,425L310.7,425L310.7,425.1L310.8,425.1L310.9,425.2L311,425.2L311.1,425.3L311.3,425.3L311.3,425.4L311.7,425.4L311.8,425.5L312.1,425.5L312.1,425.6L312.1,425.5L312.1,425.6" style="fill:white;fill-rule:nonzero;stroke:rgb(15,46,61);stroke-width:1.76px;"/>
                </g>
                <g transform="matrix(1,0,0,1,0,-81.64)">
                    <path d="M313.9,421.6L313.7,421.4L313.6,421.4L313.6,421.5L313.4,421.7L313.4,421.8L313.3,422L313.3,422.3L313.2,422.4L313.2,422.7L313.1,422.9L313,423L313,424.1L312.9,424.2L312.9,424.8L312.8,424.9L312.8,425.3L312.9,425.5L312.9,425.8L313,425.9L313,426.3L313.1,426.5L313.3,426.7L313.4,426.9L313.6,427.1L313.7,427.1L313.9,427.2L314,427.3L314.8,427.3" style="fill:white;fill-rule:nonzero;stroke:rgb(15,46,61);stroke-width:1.76px;"/>
                </g>
                <g transform="matrix(1,0,0,1,0,-76.24)">
                    <path d="M319.4,417.2L319.4,417L319.2,417L319.2,417.2L319,417.2L318.9,417.3L318.6,417.5L317.9,418.2L317.5,418.7L316.4,419.8L316.2,420.1L315.8,420.4L315.1,421L314.8,421.3L314.6,421.6L313.9,422.3L312.9,423.5L312.4,424L312.1,424.2L312,424.5L311.7,424.7L311.6,424.9L311.3,425.3L311.2,425.5L310.9,425.8L310.9,425.9L310.8,426L310.8,426.1L310.7,426.2L310.7,426.3L310.7,426.2L310.8,426.3L310.8,426.2L310.9,426" style="fill:white;fill-rule:nonzero;stroke:rgb(15,46,61);stroke-width:1.76px;"/>
                </g>
            </g>
            <g transform="matrix(1.05168,0,0,1.42132,-22.0694,-137.853)">
                <g transform="matrix(1,0,0,1,-2e-05,-86.34)">
                    <path d="M327.7,424.6L327.6,424.6L327.6,424.3L327.8,424.3L327.9,424.2L329.1,424.2L329.4,424.3L329.8,424.3L330,424.4L330.1,424.4L330.4,424.5L330.6,424.6L330.7,424.7L330.7,424.8L330.8,424.8L330.9,424.9L330.9,425L331,425.1L331,425.4L331.1,425.5L331.1,425.6L330.6,426.1L330.2,426.4L329.2,427L328.8,427.2L328.3,427.4L327.7,427.5L327.3,427.7L326.8,427.9L326.4,428.1L326.1,428.3L325.9,428.5L325.9,428.6L325.8,428.6L325.8,428.7L325.7,428.7L325.8,428.8L325.9,428.8L325.9,428.9L326.1,428.9L326.2,429L330,429L330.6,428.9L331.2,429L332.3,429L332.3,429.1L332.7,429.1L332.6,429.2L332.7,429.1L332.5,429.1L332.5,429.2" style="fill:white;fill-rule:nonzero;stroke:rgb(15,46,61);stroke-width:1.76px;"/>
                </g>
                <g transform="matrix(1,0,0,1,-2e-05,-87.74)">
                    <path d="M337.3,423.7L337.2,423.7L337.2,423.6L338.8,423.6L339,423.7L339.4,423.8L339.5,423.8L339.7,423.9L340.1,424L340.3,424.1L340.4,424.1L340.8,424.5L340.9,424.7L340.9,424.8L340.8,424.9L340.5,425.3L340.1,425.6L339.4,426.1L338.6,426.6L337.2,427.2L336.5,427.4L336,427.6L335.8,427.7L335.5,427.7L338,427.7L338.6,427.8L339,427.9L339.4,428.1L339.6,428.1L339.7,428.2L340,428.4L340.1,428.5L340.1,428.6L340.2,428.6L340.2,428.8L340.1,428.9L340.1,429L340,429.1L339.6,429.4L338.6,430L338,430.2L337,430.7L336.7,430.8L336.3,430.9L336.2,431L336,431L336,431.1L335.8,431.1L335.8,431.2L335.7,431.2L335.9,431.2L335.9,431.1L336.3,431.1" style="fill:white;fill-rule:nonzero;stroke:rgb(15,46,61);stroke-width:1.76px;"/>
                </g>
            </g>
            <g transform="matrix(1,0,0,1,0.903102,-33.84)">
                <path d="M220,388.8L220.1,388.8L220,388.8L220.1,388.8L220,388.8L220,389.5L220.1,389.6L220.1,390.2L220.2,390.3L220.2,391.1L220.3,391.2L220.3,391.7L220.4,391.8L220.4,393.6L220.5,393.7L220.5,394.4L220.6,394.5L220.6,394.8L220.7,395L220.7,395.2L220.8,395.3L220.8,395.9L220.9,396L220.9,396.6L221,396.7L221,397.9L220.9,398L220.9,399.8L221,400L221,401.1L221.1,401.2L221.1,402.5L221.2,402.7L221.2,402.8L221.1,402.9L221.1,403.1L221.2,403.1L221.2,403.6L221.3,403.6L221.2,403.6L221.3,403.6L221.2,403.6L221.3,403.6L221.2,403.6L221.2,403.5L221.2,403.6L221.1,403.5L221.2,403.5L221.2,403.6L221.3,403.5L221.3,403.6L221.7,403.6L221.8,403.7L221.9,403.7L222.1,403.8L222.2,403.8L222.2,403.9L222.6,403.9L223,404.1L223.3,404.2L223.4,404.2L223.5,404.3L223.6,404.3L223.9,404.4L224,404.4L224.2,404.5L224.4,404.5L224.5,404.6L224.6,404.6L224.8,404.7L224.9,404.8L225.1,404.8L225.3,404.9L225.5,404.9L225.7,405L225.8,405.1L225.9,405.1L226,405.2L226.2,405.3L226.4,405.3L226.8,405.5L227,405.5L227.1,405.6L227.2,405.6L227.4,405.7L227.5,405.7L227.6,405.8L227.8,405.8L228,405.9L228.1,406L228.2,406L228.3,406.1L228.4,406.1L228.7,406.4L228.9,406.4L228.9,406.5L229,406.6L229.2,406.6L229.2,406.7L229.3,406.7L229.4,406.8L229.5,406.8L229.5,406.9L229.6,406.9L229.7,407L229.9,407.1L230,407.2L230.1,407.2L230.2,407.3L230.3,407.3L230.5,407.4L230.6,407.5L230.7,407.5L230.8,407.6L230.9,407.6L231,407.7L231.2,407.8L231.3,407.9L231.4,407.9L231.6,408.1L231.7,408.1L231.9,408.3L232.5,408.6L232.5,408.7L232.6,408.7L232.8,408.9L232.9,408.9L233,409L233.2,409.1L233.3,409.2L233.5,409.2L233.8,409.5L234.2,409.7L234.3,409.7L234.4,409.8L234.6,409.8L234.9,410.1L235.1,410.2L235.4,410.3L235.5,410.4L235.6,410.4L236,410.6L236.1,410.7L236.2,410.7L236.4,410.9L236.5,410.9L236.7,411L237.1,411.4L237.2,411.4L237.3,411.5L237.5,411.6L237.6,411.7L237.7,411.7L237.8,411.8L238,411.9L238.2,411.9L238.2,412L238.3,412L238.4,411.9L238.5,411.9L238.5,412L238.7,412L238.6,412L238.7,412L238.8,412.1" style="fill:white;fill-rule:nonzero;stroke:rgb(15,46,61);stroke-width:2.23px;"/>
            </g>
            <g transform="matrix(1,0,0,1,0.903102,-51.54)">
                <path d="M220,403.6L220.1,403.6L220.1,403.5L220,403.5L220.1,403.5L220.1,403.4L220.3,403.4L220.3,403.3L220.4,403.3L220.4,403.2L220.5,403.2L220.5,403.1L220.6,403.1L220.7,403L220.9,402.9L221.1,402.7L221.1,402.6L221.3,402.5L221.5,402.3L222.7,401.5L223.1,401.3L223.4,401L223.6,401L223.7,400.8L223.9,400.8L224,400.6L224.3,400.4L224.4,400.4L224.5,400.2L224.8,400.1L225,399.9L225.3,399.8L225.5,399.6L225.7,399.5L225.9,399.3L226.2,399.1L226.3,399.1L226.8,398.6L227,398.5L227.1,398.5L227.2,398.3L227.3,398.3L227.3,398.1L227.8,397.6L227.9,397.4L228.1,397.3L229.1,396.3L229.7,395.9L229.9,395.6L230.2,395.4L230.7,394.9L231.6,394.3L231.6,394.2L231.7,394L231.8,394L231.9,393.8L232.1,393.7L232.4,393.4L232.7,393.4L232.7,393.3L232.8,393.3L232.8,393.2L232.9,393.2L233,393.1L233,393L233.5,392.5L233.7,392.4L234.4,391.7L234.7,391.5L234.9,391.3L235.2,391.1L235.3,391.1L235.4,391L235.6,390.9L235.6,390.8L235.8,390.8L235.8,390.7L235.9,390.7L235.8,390.7L235.9,390.7L235.9,390.6L235.9,390.7L235.8,390.7L235.9,390.7L235.9,390.6L236,390.6L236.1,390.5L236.3,390.4L236.5,390.4L236.6,390.3L236.7,390.3L236.7,390.2L236.8,390.2L236.8,390.1L236.9,390.1L237,390L237.2,390L237.3,389.9L237.4,389.9L237.7,389.8L237.8,389.8L237.8,389.4L237.9,389.4L238.2,389.1L238.3,389.1L238.4,389L238.4,388.9L238.5,388.9L238.4,388.9L238.5,388.9L238.6,389L238.6,389.1L238.7,389.1L238.9,389.3L238.9,389.4L239.1,389.4L239.2,389.5L239.3,389.5L239.3,389.6L239.4,389.6L239.6,389.8L239.8,389.9L239.9,389.9L239.9,390L240.3,390.2L240.3,390.3L240.4,390.3L240.7,390.6L240.8,390.6L240.8,390.7L240.9,390.7L241,390.8L241.1,390.8L241.4,391L241.7,391.1L241.8,391.1L242,391.3L242.1,391.3L242.3,391.5L242.5,391.6L242.6,391.7L242.8,391.7L243,391.9L243.1,391.9L243.1,392L243.5,392.2L243.6,392.3L243.7,392.3L243.9,392.5L244,392.5L244.2,392.7L244.4,392.7L244.5,392.8L244.9,393L244.9,393.1L245.1,393.1L245.1,393.2L245.3,393.2L245.4,393.3L245.6,393.4L245.9,393.4L246.7,393.8L246.9,394L247,394L247.1,394.1L247.3,394.2L247.5,394.2L247.6,394.3L247.8,394.4L248.1,394.6L248.7,394.8L248.9,394.9L249.2,395.1L249.4,395.2L249.5,395.3L249.7,395.3L249.9,395.4L250.2,395.6L250.4,395.8L250.6,395.9L250.7,396L250.9,396.1L251.1,396.1L251.4,396.2L251.6,396.3L251.8,396.3L252.2,396.5L252.3,396.5L252.4,396.6L252.6,396.7L252.7,396.7L252.8,396.8L252.9,396.8L253,396.9L253.1,396.9L253.1,397L253.3,397L253.7,397.2L253.8,397.3L254,397.3L254.2,397.4L254.3,397.5L254.5,397.6L254.6,397.7L254.7,397.7L254.7,397.8L254.8,397.8L254.9,397.9L255.1,398L255.2,398L255.2,398.2L255.3,398.3L255.5,398.4L255.7,398.4L255.8,398.5L255.9,398.5L256.1,398.7L256.2,398.7L256,398.7L256.1,398.7L256.1,398.8L256.2,398.8L256.1,398.8L256.1,399L256.2,399.2L256.2,399.9L256.3,400L256.3,400.2L256.4,400.4L256.4,401.5L256.5,401.6L256.5,403.3L256.6,403.5L256.7,403.6L256.7,404L256.8,404.1L256.8,405.9L256.9,405.9L256.9,407.1L257,407.2L257,408L257.1,408.1L257.1,408.6L257.2,408.7L257.2,409.1L257.1,409.2L257.1,409.5L257.2,409.6L257.2,409.8L257.3,409.9L257.3,411L257.4,411.1L257.4,411.4L257.5,411.5L257.4,411.6L257.5,411.7L257.5,412.2L257.6,412.3L257.6,412.4L257.7,412.5L257.7,412.6L257.6,412.7L257.6,412.9L257.7,413L257.7,413.3L257.8,413.4L257.8,414.2L257.9,414.3L257.9,414.6L258,414.7L258,415L258.1,415.2L258.1,415.4L258.2,415.4L258.2,415.5L258.3,415.6L258.3,415.9L258.4,416L258.4,416.4L258.5,416.4L258.5,416.5L258.4,416.5L258.4,416.7L258.5,416.7L258.5,417L258.6,417.1L258.6,417.6L258.7,417.6L258.7,417.7L258.6,417.7L258.6,417.8L258.7,417.8L258.7,418L258.8,418L258.8,418.1L258.7,418.1L258.7,418.2L258.8,418.2L258.8,418.3L258.7,418.3L258.8,418.3L258.7,418.3L258.8,418.3L258.7,418.3L258.7,418.4L258.6,418.4L258.4,418.6L258.4,418.7L258.2,418.9L258,419L257.9,419.1L257.9,419.2L257.8,419.2L257.7,419.3L257.5,419.4L257.5,419.5L256.9,419.9L256.8,419.9L256.7,420L256.5,420.1L256.3,420.3L256.1,420.4L256,420.4L255.6,420.8L255.4,420.9L255.4,421L255.3,421L255.2,421.1L254.9,421.3L254.8,421.4L254.8,421.5L254.7,421.6L254.6,421.6L254.4,421.7L254.2,421.9L254,422L253.8,422.2L253.7,422.2L253.6,422.3L253.4,422.4L253.3,422.6L253.2,422.6L253,422.8L252.8,422.8L252.7,423L252.5,423.1L252.2,423.4L252,423.4L252,423.5L251.4,423.8L251.4,423.9L251.3,423.9L251,424.2L250.9,424.2L250.6,424.5L250.5,424.5L250.2,424.8L250.1,424.8L250.1,424.9L249.9,424.9L249.9,425L249.8,425L249.6,425.1L249.5,425.2L249.4,425.2L249.4,425.3L249.3,425.4L249.2,425.4L249.1,425.5L249,425.5L249,425.6L248.8,425.8L248.5,426L248.3,426.1L248.2,426.2L248.2,426.4L248.1,426.4L248.1,426.5L247.6,427L247.5,427L247.5,427.1L247.4,427.1L247.4,427.2L247.3,427.3L247.3,427.4L247.1,427.4L247.1,427.5L247,427.5L246.9,427.6L246.9,427.7L246.8,427.7L246.6,427.9L246.5,427.9L246.5,428L246.4,428L246.4,428.1L246.3,428.1L246,428.4L246,428.5L245.8,428.5L245.8,428.6L245.7,428.6L245.7,428.7L245.6,428.7L245.6,428.8L245.5,428.8L245.5,429L245.4,429L245.3,429.1L245.2,429.1L245.2,429.2L245.1,429.3L245,429.3L245,429.4L244.9,429.4L245,429.4L244.8,429.4L244.9,429.4L244.9,429.5L244.8,429.5L244.8,429.4L244.8,429.5L244.7,429.5L244.7,429.6L244.6,429.6L244.6,429.7L244.5,429.7L244.6,429.7L244.6,429.6L244.6,429.7L244.7,429.7L244.7,429.6L244.8,429.6" style="fill:white;fill-rule:nonzero;stroke:rgb(15,46,61);stroke-width:2.23px;"/>
            </g>
            <g transform="matrix(1,0,0,1,-0.296898,-49.89)">
                <path d="M240,397.9L240.1,397.9L240,397.9L240,398L240.1,398.1L240.1,399.4L240,399.5L240,399.9L239.9,400.1L239.9,400.4L239.8,400.8L239.6,401.4L239.5,401.6L239.5,401.9L239.4,402.2L239.4,402.8L239.2,403L239.2,403.3L239.1,403.4L239.1,403.5L239,403.6L239,403.9L238.9,404L238.9,404.2L238.8,404.3L238.8,404.4L238.7,404.5L238.7,404.6L238.5,404.8L238.5,405.1L238.4,405.2L238.4,405.3L238.3,405.3L238.3,405.8L238.2,406L238.2,406.2L238.1,406.4L238.1,406.9L238,406.9L238,407L237.9,407.1L237.9,407.4L237.8,407.5L237.8,407.7L237.7,407.9L237.6,408L237.6,408.3L237.5,408.4L237.5,408.7L237.4,408.8L237.4,408.9L237.3,408.9L237.3,409.2L237.2,409.2L237.2,410L237.1,410.1L237.1,410.2L237,410.4L237,410.6L236.9,410.6L236.9,410.9L236.8,411.1L236.8,411.2L236.7,411.4L236.7,411.5L236.6,411.6L236.6,411.7L236.4,411.9L236.4,412L236.3,412.1L236.3,412.8L236.1,413L236.1,415.6L236,415.7L236,416.1L236.1,416.1L236.1,416.5L236.3,416.7L236.3,417.2L236.4,417.3L236.4,417.4L236.5,417.4L236.6,417.5L236.6,417.6L236.7,417.6L236.7,417.8L236.8,417.9L236.9,417.9L236.9,418L237,418L237,418.1L237.1,418.1L237.3,418.3L237.4,418.3L237.4,418.4L237.5,418.5L237.6,418.5L237.6,418.6L237.8,418.7L238,418.9L238.1,418.9L238.2,419L238.3,419L238.4,419.1L238.7,419.1L238.8,419.2L239,419.2L239,419.3L240.3,419.3L240.4,419.2L241,419.2L241.1,419.1L242.4,419.1L242.5,419L242.7,419L242.8,418.9L243,418.9L243.1,418.8L243.1,418.7L243.2,418.7L243.3,418.6L243.4,418.6L243.4,418.5L243.5,418.5L243.6,418.4L243.8,418.4L243.7,418.4L243.8,418.4L243.8,418.3L243.7,418.3L243.7,418.2L243.8,418.2L243.8,418.1L243.9,418.1L243.9,417.9L244,417.8L244.1,417.6L244.4,417.3L244.4,417.1L244.5,417.1L244.5,417L244.6,417L244.6,416.8L244.7,416.8L244.7,416.2L244.8,416.2L244.8,415.9L244.9,415.9L244.9,415.8L245,415.8L245,415.4L245.1,415.4L245.1,415.3L245.2,415.3L245.2,413.9L245.1,413.8L245.1,413.7L245,413.6L245,413.2L244.9,413.1L244.9,412.8L244.8,412.7L244.8,412.2L244.5,411.9L244.5,411.7L244.4,411.6L244.4,411.5L244.5,411.5L244.5,411.4L244.4,411.3L244.3,411.3L244.3,411.2L244.2,411.1L244.2,410.7L244.1,410.7L244.1,410.3L244,410.3L244,410L243.9,409.9L243.9,409.6L243.8,409.5L243.8,409.3L243.6,409.1L243.6,408.8L243.5,408.8L243.5,408.9L243.5,408.6L243.4,408.6L243.3,408.5L243.3,408.2L243.2,408.2L243.1,408.1L243.1,408L242.9,407.8L242.9,407.5L242.8,407.5L242.8,407.3L242.7,407.1L242.7,406.9L242.5,406.7L242.5,406.6L242.4,406.6L242.4,406.5L242.3,406.4L242.3,406.3L242.2,406.2L242.2,406.1L242.1,406.1L242.1,405.8L242,405.7L242,405.6L241.9,405.6L241.8,405.5L241.8,405.4L241.6,405.2L241.6,405.1L241.5,405.1L241.6,405L241.6,404.9L241.5,404.9L241.5,404.8L241.4,404.7L241.4,404.5L241.3,404.5L241.3,404.4L241.2,404.3L241.2,404.1L241.1,404L241.1,403.9L241,403.9L241,403.7L240.9,403.7L240.8,403.6L240.8,403.4L240.7,403.3L240.7,403.1L240.6,403L240.6,402.7L240.5,402.6L240.5,402.3L240.4,402.2L240.4,402.1L240.3,402L240.3,401.7L240.2,401.6L240.2,401.3L240.1,401.1L240.1,400.8L240,400.7L240,400.1L239.9,400L239.9,399.7L239.8,399.6L239.8,399.4L239.7,399.4L239.7,399.3L239.8,399.3L239.8,399.2L239.7,399.2L239.7,398.8L239.5,398.6L239.6,398.6L239.6,398.5L239.5,398.5L239.5,398.4L239.4,398.4L239.4,398.3L239.5,398.3L239.5,398.2L239.4,398.2L239.4,398.1L239.3,398.1L239.3,398L239.2,398L239.2,397.7L239.1,397.7L239.1,397.5L239.3,397.5" style="fill:rgb(143,218,245);fill-rule:nonzero;stroke:rgb(15,46,61);stroke-width:2.23px;"/>
            </g>
        </g>
    </g>
</svg>
